<mxfile host="app.diagrams.net" modified="2023-06-22T09:43:30.044Z" agent="Mozilla/5.0 (Windows NT 10.0; Win64; x64) AppleWebKit/537.36 (KHTML, like Gecko) Chrome/114.0.0.0 Safari/537.36 Edg/114.0.1823.51" etag="VF0C9V0sSSviswq3q7RS" version="21.5.0" type="github">
  <diagram name="Page-1" id="2wSPQ_juaRIIsbTfcHCN">
    <mxGraphModel dx="739" dy="462" grid="1" gridSize="10" guides="1" tooltips="1" connect="1" arrows="1" fold="1" page="1" pageScale="1" pageWidth="850" pageHeight="1100" math="0" shadow="0">
      <root>
        <mxCell id="0" />
        <mxCell id="1" parent="0" />
        <mxCell id="w_a-rS7hvSK2902wbLqP-2" style="edgeStyle=orthogonalEdgeStyle;rounded=0;orthogonalLoop=1;jettySize=auto;html=1;" edge="1" parent="1" source="w_a-rS7hvSK2902wbLqP-1">
          <mxGeometry relative="1" as="geometry">
            <mxPoint x="290" y="220" as="targetPoint" />
          </mxGeometry>
        </mxCell>
        <mxCell id="w_a-rS7hvSK2902wbLqP-1" value="Client" style="ellipse;whiteSpace=wrap;html=1;aspect=fixed;" vertex="1" parent="1">
          <mxGeometry x="100" y="180" width="80" height="80" as="geometry" />
        </mxCell>
        <mxCell id="w_a-rS7hvSK2902wbLqP-3" value="" style="html=1;verticalLabelPosition=bottom;align=center;labelBackgroundColor=#ffffff;verticalAlign=top;strokeWidth=2;strokeColor=#0080F0;shadow=0;dashed=0;shape=mxgraph.ios7.icons.mail;" vertex="1" parent="1">
          <mxGeometry x="200" y="190" width="30" height="16.5" as="geometry" />
        </mxCell>
        <mxCell id="w_a-rS7hvSK2902wbLqP-4" value="Bank Transaction" style="text;html=1;align=center;verticalAlign=middle;resizable=0;points=[];autosize=1;strokeColor=none;fillColor=none;" vertex="1" parent="1">
          <mxGeometry x="150" y="158" width="120" height="30" as="geometry" />
        </mxCell>
        <mxCell id="w_a-rS7hvSK2902wbLqP-5" value="queue" style="shape=cylinder3;whiteSpace=wrap;html=1;boundedLbl=1;backgroundOutline=1;size=15;rotation=-90;" vertex="1" parent="1">
          <mxGeometry x="330" y="150" width="60" height="140" as="geometry" />
        </mxCell>
        <mxCell id="w_a-rS7hvSK2902wbLqP-6" value="" style="verticalLabelPosition=bottom;html=1;verticalAlign=top;align=center;strokeColor=none;fillColor=#00BEF2;shape=mxgraph.azure.queue_generic;pointerEvents=1;" vertex="1" parent="1">
          <mxGeometry x="300" y="212.5" width="50" height="15" as="geometry" />
        </mxCell>
        <mxCell id="w_a-rS7hvSK2902wbLqP-8" style="edgeStyle=orthogonalEdgeStyle;rounded=0;orthogonalLoop=1;jettySize=auto;html=1;entryX=0.5;entryY=1;entryDx=0;entryDy=0;entryPerimeter=0;" edge="1" parent="1" source="w_a-rS7hvSK2902wbLqP-7" target="w_a-rS7hvSK2902wbLqP-5">
          <mxGeometry relative="1" as="geometry" />
        </mxCell>
        <mxCell id="w_a-rS7hvSK2902wbLqP-9" style="edgeStyle=orthogonalEdgeStyle;rounded=0;orthogonalLoop=1;jettySize=auto;html=1;" edge="1" parent="1" source="w_a-rS7hvSK2902wbLqP-7">
          <mxGeometry relative="1" as="geometry">
            <mxPoint x="590" y="350" as="targetPoint" />
          </mxGeometry>
        </mxCell>
        <mxCell id="w_a-rS7hvSK2902wbLqP-7" value="Server" style="ellipse;whiteSpace=wrap;html=1;aspect=fixed;" vertex="1" parent="1">
          <mxGeometry x="550" y="180" width="80" height="80" as="geometry" />
        </mxCell>
        <mxCell id="w_a-rS7hvSK2902wbLqP-10" value="DB" style="shape=cylinder3;whiteSpace=wrap;html=1;boundedLbl=1;backgroundOutline=1;size=15;" vertex="1" parent="1">
          <mxGeometry x="560" y="350" width="60" height="80" as="geometry" />
        </mxCell>
      </root>
    </mxGraphModel>
  </diagram>
</mxfile>
